<svg width="30" height="30" viewBox="0 0 30 30" fill="none" xmlns="http://www.w3.org/2000/svg">
<path d="M21.6005 12.2668C21.2622 11.4557 21.3121 10.5407 21.7312 9.76038C22.7191 7.92286 24.1914 5.93926 25.6753 4.45925L25.5446 4.32855C24.0607 5.8124 22.0771 7.28857 20.2435 8.27268C19.4631 8.6917 18.552 8.73783 17.7371 8.40338C16.9259 8.06509 16.3109 7.38852 16.0571 6.53895C15.4536 4.54382 15.0961 2.09892 15.0961 0L14.9077 0C14.9077 2.09892 14.5502 4.54382 13.9467 6.53895C13.693 7.38467 13.0779 8.06509 12.2668 8.40338C11.4518 8.74167 10.5407 8.6917 9.76038 8.27268C7.92286 7.28473 5.94311 5.8124 4.45925 4.32855L4.32855 4.45925C5.8124 5.94311 7.28857 7.9267 8.27268 9.76038C8.6917 10.5407 8.73783 11.4518 8.40338 12.2668C8.06509 13.0779 7.38852 13.693 6.53895 13.9467C4.54382 14.5464 2.09892 14.9077 0 14.9077L0 15L0 15.0923C2.09892 15.0923 4.54382 15.4498 6.53895 16.0533C7.38467 16.307 8.06509 16.9221 8.40338 17.7332C8.74167 18.5443 8.6917 19.4593 8.27268 20.2396C7.28857 22.0771 5.8124 24.0569 4.32855 25.5407L4.45925 25.6714C5.94311 24.1876 7.9267 22.7114 9.76038 21.7273C10.5407 21.3083 11.4518 21.2622 12.2668 21.5966C13.0779 21.9349 13.693 22.6115 13.9467 23.461C14.5464 25.4562 14.9077 27.9011 14.9077 30H15H15.0923C15.0923 27.9011 15.4498 25.4562 16.0533 23.461C16.307 22.6153 16.9221 21.9349 17.7332 21.5966C18.5482 21.2583 19.4593 21.3083 20.2396 21.7273C22.0771 22.7153 24.0569 24.1876 25.5407 25.6714L25.6714 25.5407C24.1876 24.0569 22.7114 22.0733 21.7273 20.2396C21.3083 19.4593 21.2622 18.5482 21.5966 17.7332C21.9349 16.9221 22.6115 16.307 23.461 16.0533C25.4562 15.4536 27.9011 15.0923 30 15.0923V14.9039C27.9011 14.9039 25.4562 14.5464 23.461 13.9429C22.6153 13.693 21.9387 13.0818 21.6005 12.2668Z" fill="white"/>
</svg>
