<svg width="26" height="21" viewBox="0 0 26 21" fill="none" xmlns="http://www.w3.org/2000/svg">
<path d="M25.0699 2.37001C24.1499 2.78001 23.1699 3.04001 22.1699 3.17001C23.2299 2.54001 24.0099 1.54001 24.3899 0.370007C23.3999 0.960007 22.3199 1.37001 21.1799 1.60001C19.2699 -0.429993 16.0699 -0.529993 14.0399 1.38001C13.0299 2.33001 12.4499 3.66001 12.4499 5.06001C12.4499 5.45001 12.4899 5.83001 12.5799 6.21001C8.51995 6.00001 4.73994 4.09001 2.15994 0.950007C0.829943 3.25001 1.50994 6.19001 3.70994 7.67001C2.90994 7.64001 2.11994 7.43001 1.41994 7.04001V7.11001C1.41994 9.51001 3.11994 11.58 5.46994 12.06C4.72994 12.26 3.94994 12.29 3.18994 12.15C3.84994 14.21 5.74994 15.62 7.90994 15.66C6.11994 17.06 3.90994 17.82 1.63994 17.81C1.23994 17.81 0.839941 17.79 0.439941 17.74C2.74994 19.23 5.44994 20.02 8.19994 20.01C17.5099 20.01 22.5699 12.32 22.5699 5.65001C22.5699 5.43001 22.5699 5.21001 22.5699 4.99001C23.5499 4.26001 24.3999 3.38001 25.0699 2.37001Z" fill="white"/>
</svg>
