<svg width="27" height="20" viewBox="0 0 27 20" fill="none" xmlns="http://www.w3.org/2000/svg">
<path d="M22.3535 1.67C20.6235 0.88 18.7935 0.32 16.9135 0C16.6535 0.46 16.4235 0.93 16.2135 1.42C14.2135 1.12 12.1735 1.12 10.1735 1.42C9.96351 0.93 9.73351 0.46 9.47351 0C7.59351 0.32 5.76351 0.89 4.02351 1.68C0.573514 6.78 -0.356486 11.75 0.113514 16.65C2.13351 18.14 4.39351 19.27 6.79351 20C7.33351 19.27 7.81351 18.5 8.22351 17.69C7.44351 17.4 6.69351 17.04 5.97351 16.61C6.16351 16.47 6.34351 16.33 6.52351 16.19C10.7535 18.18 15.6435 18.18 19.8735 16.19C20.0535 16.34 20.2435 16.48 20.4235 16.61C19.7035 17.03 18.9535 17.39 18.1635 17.69C18.5735 18.5 19.0535 19.27 19.5935 19.99C21.9935 19.27 24.2535 18.13 26.2735 16.64C26.8235 10.97 25.3435 6.04 22.3535 1.67ZM8.81351 13.63C7.51351 13.63 6.43351 12.45 6.43351 11C6.43351 9.55 7.47351 8.36 8.80351 8.36C10.1335 8.36 11.2035 9.55 11.1835 11C11.1635 12.45 10.1435 13.63 8.81351 13.63ZM17.5835 13.63C16.2835 13.63 15.2135 12.45 15.2135 11C15.2135 9.55 16.2535 8.36 17.5835 8.36C18.9235 8.36 19.9835 9.55 19.9535 11C19.9335 12.45 18.9035 13.63 17.5835 13.63Z" fill="white"/>
</svg>
